# xmcd CD database file
#
# Track frame offsets:
#	150
#	10818
#	21066
#	32679
#	44462
#	55482
#	66915
#	76916
#	88574
#	99057
#	110750
#	123068
#	132991
#	142629
#	155834
#	167009
#	176569
#	188334
#	200579
#	212900
#	222365
#	233171
#	245548
#
# Disc length: 3423 seconds
#
# Revision: 0
# Processed by: cddbd v1.4PL0 Copyright (c) Steve Scherf et al.
# Submitted via: CDex 1.40Release
#
DISCID=350d5d17
DTITLE=Louie Innis - Skip, Hop and Jump
DYEAR=1900
DGENRE=Country
TTITLE0=Stomp That Thing
TTITLE1=There's A Red Hot Fire In The Old Locomotive
TTITLE2=My Dreamboat Struck A Snag
TTITLE3=I've Got A Red Hot Love
TTITLE4=Honky Tonk Man
TTITLE5=What A Way To Die
TTITLE6=I Grabbed For The Engine (And Caught The Caboose)
TTITLE7=Whammy Bammy Buzzard Goozer
TTITLE8=Jug Band Boogie
TTITLE9=Good Morning Judge
TTITLE10=Sing Your Song Baby
TTITLE11=She Rurn't It
TTITLE12=I Ain't Got A Pot
TTITLE13=Oh Babe
TTITLE14=The Kissing Chain
TTITLE15=Let's make Up Tonight, Honey
TTITLE16=Hearts Of Stone
TTITLE17=She's Mean To Me
TTITLE18=I Thought She Was A Local (But She Was A Fast Express)
TTITLE19=You've Got It
TTITLE20=I Got A Road Trip Ticket
TTITLE21=Mexican Joe (& Charlie Gore)
TTITLE22=(You Ain't Nothin' But A Female) Hounddog (& Charlie Gore)
EXTD=ID3G: 2
EXTT0=
EXTT1=
EXTT2=
EXTT3=
EXTT4=
EXTT5=
EXTT6=
EXTT7=
EXTT8=
EXTT9=
EXTT10=
EXTT11=
EXTT12=
EXTT13=
EXTT14=
EXTT15=
EXTT16=
EXTT17=
EXTT18=
EXTT19=
EXTT20=
EXTT21=
EXTT22=
PLAYORDER=
